<?xml version="1.0" encoding="UTF-8"?>
<svg version="1.1" xmlns="http://www.w3.org/2000/svg" width="798" height="797">
<path d="M0 0 C0.72441599 -0.00407553 1.44883198 -0.00815105 2.19519997 -0.01235008 C6.04997073 -0.03312107 9.90470714 -0.04744604 13.75952148 -0.05688477 C16.87463653 -0.0656281 19.98928837 -0.08623211 23.10424805 -0.1184082 C81.38837623 -0.70652593 137.99387049 12.50351034 190.80078125 37.23828125 C191.73341797 37.67366211 192.66605469 38.10904297 193.62695312 38.55761719 C215.18953256 48.72676839 235.69245198 60.98249246 254.80078125 75.23828125 C255.50638184 75.76131836 256.21198242 76.28435547 256.93896484 76.82324219 C279.9389351 93.93065808 302.31335663 113.24883346 320.80078125 135.23828125 C321.95707031 136.56085938 321.95707031 136.56085938 323.13671875 137.91015625 C341.63829571 159.18140956 357.12791685 182.63012815 370.80078125 207.23828125 C371.24099609 208.02154785 371.68121094 208.80481445 372.13476562 209.61181641 C393.3622889 247.62767652 406.8203564 289.67447359 414.05078125 332.48828125 C414.17602173 333.22420502 414.30126221 333.96012878 414.43029785 334.71835327 C417.79360403 354.69182344 419.1528347 374.29991189 419.11645508 394.56201172 C419.11330937 398.20571265 419.13680318 401.84858691 419.16210938 405.4921875 C419.22028327 426.98522552 417.48438965 448.351282 413.48828125 469.48828125 C413.16645874 471.21788086 413.16645874 471.21788086 412.83813477 472.98242188 C400.78747816 536.13011902 373.81003365 595.86832668 333.80078125 646.23828125 C333.05054688 647.18316406 332.3003125 648.12804687 331.52734375 649.1015625 C326.99154474 654.72754478 322.25901325 660.12945435 317.35546875 665.4375 C315.36360302 667.62124271 313.42241828 669.829174 311.4921875 672.06640625 C307.78279327 676.31808908 303.86343414 680.32377292 299.86328125 684.30078125 C299.19876953 684.96916016 298.53425781 685.63753906 297.84960938 686.32617188 C293.33121385 690.83580233 288.63827108 695.07549889 283.80078125 699.23828125 C282.74091891 700.17565092 281.68224878 701.11437101 280.625 702.0546875 C220.35197938 755.09494565 143.89339293 786.0913198 64.80078125 796.23828125 C63.75074165 796.37314186 63.75074165 796.37314186 62.67948914 796.51072693 C54.99920354 797.394564 47.32456615 797.43917725 39.6015625 797.4765625 C38.51493852 797.48267579 38.51493852 797.48267579 37.40636253 797.48891258 C33.55159177 797.50968357 29.69685536 797.52400854 25.84204102 797.53344727 C22.72692597 797.5421906 19.61227413 797.56279461 16.49731445 797.5949707 C-41.78681373 798.18308843 -98.39230799 784.97305216 -151.19921875 760.23828125 C-152.13185547 759.80290039 -153.06449219 759.36751953 -154.02539062 758.91894531 C-175.58797006 748.74979411 -196.09088948 736.49407004 -215.19921875 722.23828125 C-215.90481934 721.71524414 -216.61041992 721.19220703 -217.33740234 720.65332031 C-240.3373726 703.54590442 -262.71179413 684.22772904 -281.19921875 662.23828125 C-282.35550781 660.91570312 -282.35550781 660.91570312 -283.53515625 659.56640625 C-302.03673321 638.29515294 -317.52635435 614.84643435 -331.19921875 590.23828125 C-331.63943359 589.45501465 -332.07964844 588.67174805 -332.53320312 587.86474609 C-353.7607264 549.84888598 -367.2187939 507.80208891 -374.44921875 464.98828125 C-374.57445923 464.25235748 -374.69969971 463.51643372 -374.82873535 462.75820923 C-378.19204153 442.78473906 -379.5512722 423.17665061 -379.51489258 402.91455078 C-379.51174687 399.27084985 -379.53524068 395.62797559 -379.56054688 391.984375 C-379.61872077 370.49133698 -377.88282715 349.1252805 -373.88671875 327.98828125 C-373.56489624 326.25868164 -373.56489624 326.25868164 -373.23657227 324.49414062 C-361.18591566 261.34644348 -334.20847115 201.60823582 -294.19921875 151.23828125 C-293.44898438 150.29339844 -292.69875 149.34851563 -291.92578125 148.375 C-287.38998224 142.74901772 -282.65745075 137.34710815 -277.75390625 132.0390625 C-275.76204052 129.85531979 -273.82085578 127.6473885 -271.890625 125.41015625 C-268.18123077 121.15847342 -264.26187164 117.15278958 -260.26171875 113.17578125 C-259.59720703 112.50740234 -258.93269531 111.83902344 -258.24804688 111.15039062 C-253.72965135 106.64076017 -249.03670858 102.40106361 -244.19921875 98.23828125 C-243.13935641 97.30091158 -242.08068628 96.36219149 -241.0234375 95.421875 C-180.75041688 42.38161685 -104.29183043 11.3852427 -25.19921875 1.23828125 C-24.49919235 1.14837418 -23.79916595 1.0584671 -23.07792664 0.96583557 C-15.39764104 0.0819985 -7.72300365 0.03738525 0 0 Z " fill="#251551" transform="translate(379.19921875,-0.23828125)"/>
<path d="M0 0 C9.78776229 -0.23206344 19.57486684 -0.40956081 29.36482334 -0.51812172 C33.91127988 -0.57023734 38.45585002 -0.64087021 43.0012207 -0.75439453 C47.39100992 -0.86334241 51.77898968 -0.92289853 56.17002678 -0.94877243 C57.84197418 -0.96720025 59.51382627 -1.00319098 61.18499947 -1.05730057 C74.26507901 -1.46382706 74.26507901 -1.46382706 78.509552 2.11741638 C80.32369018 4.67587305 81.66483844 7.16781679 83 10 C84.07644024 11.67742601 85.17290552 13.34232431 86.296875 14.98828125 C87.44950847 16.76198743 88.60047217 18.5367795 89.75 20.3125 C91.06998939 22.34395999 92.39031838 24.37519934 93.7109375 26.40625 C94.40541992 27.47488281 95.09990234 28.54351562 95.81542969 29.64453125 C99.25445585 34.93092327 102.71395756 40.20391936 106.17205811 45.47784424 C108.18296668 48.54476294 110.19300282 51.61225335 112.203125 54.6796875 C112.79998611 55.59045547 112.79998611 55.59045547 113.40890503 56.5196228 C117.28611903 62.43616024 121.16240862 68.35330058 125.03543091 74.27258301 C126.10840437 75.91214103 127.1820049 77.55128863 128.25561523 79.19042969 C131.19073622 83.67699688 134.1181353 88.16683801 136.98828125 92.6953125 C137.41286621 93.3644165 137.83745117 94.03352051 138.27490234 94.72290039 C139.33276437 96.39677489 140.38357114 98.07510297 141.43359375 99.75390625 C142.80497203 102.10157925 142.80497203 102.10157925 145 103 C145.22792236 102.33548828 145.45584473 101.67097656 145.69067383 100.98632812 C147.38936852 97.11192323 149.62086083 93.74115246 151.94921875 90.21875 C152.43782883 89.4719397 152.9264389 88.72512939 153.42985535 87.95568848 C154.44933657 86.39855771 155.47076723 84.84270165 156.49407959 83.28808594 C157.90090665 81.15056181 159.30244033 79.00969652 160.70166016 76.8671875 C163.39831326 72.74020814 166.1045987 68.61960479 168.8125 64.5 C169.53894211 63.39395416 169.53894211 63.39395416 170.28005981 62.26556396 C175.85791753 53.77457684 181.45648164 45.29803165 187.1015625 36.8515625 C187.84157753 35.74400604 187.84157753 35.74400604 188.59654236 34.61407471 C190.94108012 31.10662117 193.28890458 27.60143092 195.6418457 24.09960938 C196.49955501 22.81903941 197.3572231 21.53844184 198.21484375 20.2578125 C199.35249951 18.56438885 200.49159092 16.87170712 201.65768433 15.19773865 C203.14004953 12.87924545 203.14004953 12.87924545 204.45877075 9.6988678 C206.32224691 5.86939568 207.99628925 3.0321109 211 0 C216.89341182 -1.81286947 222.51705082 -1.52402451 228.625 -1.26953125 C230.33985396 -1.24525543 232.05479868 -1.22676414 233.76977539 -1.21379089 C238.26362198 -1.16436994 242.75192281 -1.03690603 247.24359131 -0.89263916 C251.83480791 -0.75915524 256.4269297 -0.70017643 261.01953125 -0.63476562 C270.01544548 -0.49573367 279.00726007 -0.27416074 288 0 C287.52899368 0.7394989 287.05798737 1.4789978 286.57270813 2.24090576 C285.94970322 3.21940491 285.3266983 4.19790405 284.68481445 5.20605469 C284.06943314 6.17242859 283.45405182 7.13880249 282.82002258 8.13446045 C281.22045393 10.6529057 279.62863375 13.17591145 278.04296875 15.703125 C273.07408179 23.61958415 268.05784856 31.49173569 262.84472656 39.24975586 C259.49457691 44.24011035 256.2076184 49.26938376 252.9375 54.3125 C247.89074888 62.09369179 242.82714451 69.86360134 237.75 77.625 C237.03674561 78.71546631 236.32349121 79.80593262 235.58862305 80.92944336 C233.02469865 84.84890044 230.46037678 88.76809731 227.89599609 92.68725586 C225.34700533 96.58295777 222.79838813 100.47890384 220.25 104.375 C219.54093506 105.45885986 218.83187012 106.54271973 218.10131836 107.65942383 C214.90476823 112.54785089 211.71206138 117.43862247 208.53515625 122.33984375 C207.99552246 123.17201416 207.45588867 124.00418457 206.89990234 124.86157227 C205.8554596 126.47417772 204.81276674 128.08791811 203.77197266 129.70288086 C200.93206421 134.09317962 198.02845082 138.42828602 195.05078125 142.7265625 C194.3961792 143.68006592 193.74157715 144.63356934 193.06713867 145.6159668 C191.79996838 147.45690797 190.52067963 149.28958317 189.2277832 151.11254883 C188.66019287 151.94036865 188.09260254 152.76818848 187.5078125 153.62109375 C186.99879395 154.3473999 186.48977539 155.07370605 185.96533203 155.82202148 C184.68655853 158.70718547 185.0003139 160.03037785 186 163 C187.34149574 165.44792214 187.34149574 165.44792214 189.15625 167.96875 C189.87941406 169.02191406 190.60257813 170.07507813 191.34765625 171.16015625 C191.76354004 171.76037598 192.17942383 172.3605957 192.60791016 172.97900391 C194.76717644 176.11376475 196.88702255 179.27485268 199.01171875 182.43310547 C200.87888972 185.20848194 202.74949932 187.98151112 204.62109375 190.75390625 C205.25901855 191.6989502 205.89694336 192.64399414 206.55419922 193.61767578 C207.51737061 195.04442627 207.51737061 195.04442627 208.5 196.5 C224.20255558 219.76027241 224.20255558 219.76027241 231 230 C240.45140214 244.22547139 249.96213502 258.40757085 259.55151367 272.5402832 C260.44972223 273.86408474 261.34791534 275.18789676 262.24609375 276.51171875 C262.70062424 277.18163345 263.15515472 277.85154816 263.62345886 278.54176331 C267.33091126 284.00831639 271.02808983 289.48176293 274.72265625 294.95703125 C275.28766342 295.7941716 275.85267059 296.63131195 276.43479919 297.49382019 C278.67011688 300.80587565 280.9054121 304.11794436 283.1388855 307.4312439 C284.6855149 309.72555399 286.23328883 312.01908832 287.78125 314.3125 C288.23560928 314.98726883 288.68996857 315.66203766 289.15809631 316.35725403 C291.32647132 319.56788482 293.53212374 322.73311501 295.82617188 325.85546875 C298 329 298 329 298 331 C287.73585362 331.60654587 277.47604889 332.06627789 267.19754124 332.34711647 C262.42166582 332.48205274 257.65815236 332.6642286 252.8894043 332.96142578 C221.2108904 334.88421456 221.2108904 334.88421456 213.66723633 328.568573 C208.02224793 322.87537591 204.70514792 315.72975271 201.57897949 308.4339447 C198.93393065 302.68152581 195.38948149 297.56975372 191.875 292.3125 C190.54513555 290.23845577 189.21907507 288.16196282 187.8984375 286.08203125 C184.13523156 280.19745611 180.32431347 274.34498987 176.5 268.5 C169.17248582 257.29903834 161.95753144 246.0276214 154.75488281 234.74609375 C151.18252783 229.15596453 147.59197389 223.57753723 144 218 C140.0315989 221.50909542 137.65596679 225.61418683 135 230.125 C131.15046173 236.54546127 127.18061551 242.85238693 123 249.0625 C119.13790867 254.8025914 115.31141586 260.56022988 111.5625 266.375 C111.11777344 267.064729 110.67304688 267.75445801 110.21484375 268.46508789 C109.29434604 269.89300997 108.37393758 271.32098959 107.45361328 272.74902344 C104.81234255 276.83913363 102.15518328 280.91891385 99.5 285 C97.85544186 287.52966194 96.21113573 290.05948751 94.56689453 292.58935547 C93.560287 294.13800656 92.55346896 295.68652085 91.54638672 297.23486328 C90.65272393 298.60931979 89.76157169 299.98541385 88.87362671 301.36357117 C87.97242735 302.74344472 87.05517478 304.1131039 86.11517334 305.46684265 C83.56903442 309.20440809 81.68865617 312.62678537 80.29418945 316.93847656 C78.06091774 322.90591573 75.51929473 327.55617189 70 331 C58.05973427 334.6933417 43.91761738 332.85772491 31.62750244 332.30462646 C26.82225445 332.10903264 22.01512548 332.0232345 17.20703125 331.92773438 C7.79970069 331.72491261 -1.59919323 331.40140117 -11 331 C-6.5059846 323.89914786 -1.95404261 316.84111277 2.67578125 309.828125 C3.59087715 308.43989532 3.59087715 308.43989532 4.52445984 307.02362061 C5.80552521 305.08057854 7.08700865 303.13781206 8.36889648 301.1953125 C10.29833158 298.27147065 12.22642714 295.34674917 14.15429688 292.421875 C19.88066352 283.73719677 25.61748003 275.05999357 31.39584351 266.40982056 C35.92887801 259.6184823 40.4121533 252.79448759 44.89608765 245.97067261 C47.0466896 242.69795452 49.19855048 239.42606478 51.35029602 236.15409851 C53.06371881 233.54860544 54.77698541 230.94300971 56.49023438 228.33740234 C61.22156084 221.14207748 65.9537518 213.94732305 70.6887207 206.75439453 C73.00211603 203.23998862 75.31291133 199.72389389 77.62182617 196.20654297 C82.30805678 189.07377499 86.99903823 181.94951132 91.84765625 174.92578125 C92.52481689 173.93843994 93.20197754 172.95109863 93.8996582 171.93383789 C95.08163197 170.21943788 96.27566104 168.51324615 97.48510742 166.81811523 C100.23414285 162.93699546 100.23414285 162.93699546 101.08984375 158.38671875 C99.63984563 155.21127484 97.81477429 152.40583064 95.8125 149.5625 C94.89611325 148.22554848 93.98219791 146.88690077 93.0703125 145.546875 C92.3282959 144.45729492 92.3282959 144.45729492 91.57128906 143.34570312 C88.69588242 139.05314455 85.94833144 134.67926535 83.1875 130.3125 C78.70816267 123.24317676 74.19785583 116.19670764 69.625 109.1875 C63.96837754 100.5147675 58.3805778 91.79916766 52.80566406 83.07373047 C49.01398817 77.14112035 45.20864123 71.21806992 41.375 65.3125 C36.72716584 58.14893752 32.13783481 50.94897734 27.56005859 43.74047852 C24.30511633 38.61662953 21.04059064 33.49920124 17.76171875 28.390625 C17.05168701 27.28396484 16.34165527 26.17730469 15.61010742 25.03710938 C14.24299095 22.90742568 12.87473589 20.77847227 11.50512695 18.65039062 C10.87437256 17.66748047 10.24361816 16.68457031 9.59375 15.671875 C9.04396484 14.8169043 8.49417969 13.96193359 7.92773438 13.08105469 C5.22287969 8.75794601 2.61276482 4.3792111 0 0 Z " fill="#FEFEFE" transform="translate(322,220)"/>
<path d="M0 0 C23.43 0 46.86 0 71 0 C71 109.23 71 218.46 71 331 C47.57 331 24.14 331 0 331 C0 221.77 0 112.54 0 0 Z " fill="#FEFEFE" transform="translate(197,220)"/>
</svg>
